<mxfile host="app.diagrams.net" agent="Mozilla/5.0 (Windows NT 10.0; Win64; x64) AppleWebKit/537.36 (KHTML, like Gecko) Chrome/128.0.0.0 Safari/537.36" version="24.7.16">
  <diagram id="C5RBs43oDa-KdzZeNtuy" name="Page-1">
    <mxGraphModel dx="1434" dy="746" grid="1" gridSize="10" guides="1" tooltips="1" connect="1" arrows="1" fold="1" page="1" pageScale="1" pageWidth="827" pageHeight="1169" math="0" shadow="0">
      <root>
        <mxCell id="WIyWlLk6GJQsqaUBKTNV-0" />
        <mxCell id="WIyWlLk6GJQsqaUBKTNV-1" parent="WIyWlLk6GJQsqaUBKTNV-0" />
        <mxCell id="WIyWlLk6GJQsqaUBKTNV-2" value="" style="rounded=0;html=1;jettySize=auto;orthogonalLoop=1;fontSize=11;endArrow=block;endFill=0;endSize=8;strokeWidth=1;shadow=0;labelBackgroundColor=none;edgeStyle=orthogonalEdgeStyle;" parent="WIyWlLk6GJQsqaUBKTNV-1" source="WIyWlLk6GJQsqaUBKTNV-3" edge="1">
          <mxGeometry relative="1" as="geometry">
            <mxPoint x="250" y="170" as="targetPoint" />
          </mxGeometry>
        </mxCell>
        <mxCell id="WIyWlLk6GJQsqaUBKTNV-3" value="start" style="rounded=1;whiteSpace=wrap;html=1;fontSize=12;glass=0;strokeWidth=1;shadow=0;" parent="WIyWlLk6GJQsqaUBKTNV-1" vertex="1">
          <mxGeometry x="190" y="80" width="120" height="40" as="geometry" />
        </mxCell>
        <mxCell id="DeL48xGdkNbRI5uETKw6-2" value="" style="edgeStyle=orthogonalEdgeStyle;rounded=0;orthogonalLoop=1;jettySize=auto;html=1;" parent="WIyWlLk6GJQsqaUBKTNV-1" source="DeL48xGdkNbRI5uETKw6-1" edge="1">
          <mxGeometry relative="1" as="geometry">
            <mxPoint x="250" y="270" as="targetPoint" />
          </mxGeometry>
        </mxCell>
        <mxCell id="DeL48xGdkNbRI5uETKw6-1" value="set pin 11 mode to output" style="rounded=0;whiteSpace=wrap;html=1;" parent="WIyWlLk6GJQsqaUBKTNV-1" vertex="1">
          <mxGeometry x="190" y="170" width="120" height="60" as="geometry" />
        </mxCell>
        <mxCell id="DeL48xGdkNbRI5uETKw6-13" style="edgeStyle=orthogonalEdgeStyle;rounded=0;orthogonalLoop=1;jettySize=auto;html=1;exitX=0.5;exitY=1;exitDx=0;exitDy=0;entryX=0.5;entryY=0;entryDx=0;entryDy=0;" parent="WIyWlLk6GJQsqaUBKTNV-1" source="DeL48xGdkNbRI5uETKw6-3" target="DeL48xGdkNbRI5uETKw6-5" edge="1">
          <mxGeometry relative="1" as="geometry" />
        </mxCell>
        <mxCell id="DeL48xGdkNbRI5uETKw6-3" value="for loop&lt;div&gt;i = 0 ~ 255&lt;/div&gt;" style="shape=hexagon;perimeter=hexagonPerimeter2;whiteSpace=wrap;html=1;fixedSize=1;" parent="WIyWlLk6GJQsqaUBKTNV-1" vertex="1">
          <mxGeometry x="290" y="390" width="120" height="80" as="geometry" />
        </mxCell>
        <mxCell id="DeL48xGdkNbRI5uETKw6-12" style="edgeStyle=orthogonalEdgeStyle;rounded=0;orthogonalLoop=1;jettySize=auto;html=1;exitX=0.5;exitY=1;exitDx=0;exitDy=0;entryX=0.5;entryY=0;entryDx=0;entryDy=0;" parent="WIyWlLk6GJQsqaUBKTNV-1" source="DeL48xGdkNbRI5uETKw6-5" target="DeL48xGdkNbRI5uETKw6-7" edge="1">
          <mxGeometry relative="1" as="geometry" />
        </mxCell>
        <mxCell id="DeL48xGdkNbRI5uETKw6-5" value="write i to pin 11" style="rounded=0;whiteSpace=wrap;html=1;" parent="WIyWlLk6GJQsqaUBKTNV-1" vertex="1">
          <mxGeometry x="290" y="490" width="120" height="60" as="geometry" />
        </mxCell>
        <mxCell id="ER4bZgXHRKzJ_WXMxjQE-26" style="edgeStyle=orthogonalEdgeStyle;rounded=0;orthogonalLoop=1;jettySize=auto;html=1;exitX=0.5;exitY=1;exitDx=0;exitDy=0;entryX=0.5;entryY=0;entryDx=0;entryDy=0;" edge="1" parent="WIyWlLk6GJQsqaUBKTNV-1" source="DeL48xGdkNbRI5uETKw6-7" target="ER4bZgXHRKzJ_WXMxjQE-25">
          <mxGeometry relative="1" as="geometry" />
        </mxCell>
        <mxCell id="DeL48xGdkNbRI5uETKw6-7" value="sleep 0.01s" style="rounded=0;whiteSpace=wrap;html=1;" parent="WIyWlLk6GJQsqaUBKTNV-1" vertex="1">
          <mxGeometry x="290" y="570" width="120" height="60" as="geometry" />
        </mxCell>
        <mxCell id="ER4bZgXHRKzJ_WXMxjQE-12" style="edgeStyle=orthogonalEdgeStyle;rounded=0;orthogonalLoop=1;jettySize=auto;html=1;exitX=1;exitY=0.5;exitDx=0;exitDy=0;entryX=1;entryY=0.5;entryDx=0;entryDy=0;" edge="1" parent="WIyWlLk6GJQsqaUBKTNV-1" source="ER4bZgXHRKzJ_WXMxjQE-6" target="DeL48xGdkNbRI5uETKw6-3">
          <mxGeometry relative="1" as="geometry">
            <mxPoint x="440" y="430" as="targetPoint" />
            <Array as="points">
              <mxPoint x="430" y="770" />
              <mxPoint x="430" y="430" />
            </Array>
          </mxGeometry>
        </mxCell>
        <mxCell id="ER4bZgXHRKzJ_WXMxjQE-28" style="edgeStyle=orthogonalEdgeStyle;rounded=0;orthogonalLoop=1;jettySize=auto;html=1;exitX=0.5;exitY=1;exitDx=0;exitDy=0;entryX=0.5;entryY=0;entryDx=0;entryDy=0;" edge="1" parent="WIyWlLk6GJQsqaUBKTNV-1" source="ER4bZgXHRKzJ_WXMxjQE-6" target="ER4bZgXHRKzJ_WXMxjQE-30">
          <mxGeometry relative="1" as="geometry">
            <mxPoint x="350" y="860" as="targetPoint" />
            <Array as="points">
              <mxPoint x="350" y="830" />
              <mxPoint x="270" y="830" />
              <mxPoint x="270" y="400" />
              <mxPoint x="130" y="400" />
            </Array>
          </mxGeometry>
        </mxCell>
        <mxCell id="ER4bZgXHRKzJ_WXMxjQE-6" value="if i &amp;gt; 255" style="rhombus;whiteSpace=wrap;html=1;" vertex="1" parent="WIyWlLk6GJQsqaUBKTNV-1">
          <mxGeometry x="310" y="730" width="80" height="80" as="geometry" />
        </mxCell>
        <mxCell id="ER4bZgXHRKzJ_WXMxjQE-11" value="True" style="text;html=1;align=center;verticalAlign=middle;whiteSpace=wrap;rounded=0;" vertex="1" parent="WIyWlLk6GJQsqaUBKTNV-1">
          <mxGeometry x="280" y="810" width="60" height="30" as="geometry" />
        </mxCell>
        <mxCell id="ER4bZgXHRKzJ_WXMxjQE-13" value="False" style="text;html=1;align=center;verticalAlign=middle;whiteSpace=wrap;rounded=0;" vertex="1" parent="WIyWlLk6GJQsqaUBKTNV-1">
          <mxGeometry x="420" y="550" width="60" height="30" as="geometry" />
        </mxCell>
        <mxCell id="ER4bZgXHRKzJ_WXMxjQE-27" style="edgeStyle=orthogonalEdgeStyle;rounded=0;orthogonalLoop=1;jettySize=auto;html=1;exitX=0.5;exitY=1;exitDx=0;exitDy=0;entryX=0.5;entryY=0;entryDx=0;entryDy=0;" edge="1" parent="WIyWlLk6GJQsqaUBKTNV-1" source="ER4bZgXHRKzJ_WXMxjQE-25" target="ER4bZgXHRKzJ_WXMxjQE-6">
          <mxGeometry relative="1" as="geometry" />
        </mxCell>
        <mxCell id="ER4bZgXHRKzJ_WXMxjQE-25" value="i = i + 1" style="rounded=0;whiteSpace=wrap;html=1;" vertex="1" parent="WIyWlLk6GJQsqaUBKTNV-1">
          <mxGeometry x="290" y="644.5" width="120" height="60" as="geometry" />
        </mxCell>
        <mxCell id="ER4bZgXHRKzJ_WXMxjQE-29" style="edgeStyle=orthogonalEdgeStyle;rounded=0;orthogonalLoop=1;jettySize=auto;html=1;exitX=0.5;exitY=1;exitDx=0;exitDy=0;entryX=0.5;entryY=0;entryDx=0;entryDy=0;" edge="1" parent="WIyWlLk6GJQsqaUBKTNV-1" source="ER4bZgXHRKzJ_WXMxjQE-30" target="ER4bZgXHRKzJ_WXMxjQE-32">
          <mxGeometry relative="1" as="geometry" />
        </mxCell>
        <mxCell id="ER4bZgXHRKzJ_WXMxjQE-30" value="for loop&lt;div&gt;i = 255 ~ 0&lt;/div&gt;" style="shape=hexagon;perimeter=hexagonPerimeter2;whiteSpace=wrap;html=1;fixedSize=1;" vertex="1" parent="WIyWlLk6GJQsqaUBKTNV-1">
          <mxGeometry x="70" y="420" width="120" height="80" as="geometry" />
        </mxCell>
        <mxCell id="ER4bZgXHRKzJ_WXMxjQE-31" style="edgeStyle=orthogonalEdgeStyle;rounded=0;orthogonalLoop=1;jettySize=auto;html=1;exitX=0.5;exitY=1;exitDx=0;exitDy=0;entryX=0.5;entryY=0;entryDx=0;entryDy=0;" edge="1" parent="WIyWlLk6GJQsqaUBKTNV-1" source="ER4bZgXHRKzJ_WXMxjQE-32" target="ER4bZgXHRKzJ_WXMxjQE-34">
          <mxGeometry relative="1" as="geometry" />
        </mxCell>
        <mxCell id="ER4bZgXHRKzJ_WXMxjQE-32" value="write i to pin 11" style="rounded=0;whiteSpace=wrap;html=1;" vertex="1" parent="WIyWlLk6GJQsqaUBKTNV-1">
          <mxGeometry x="70" y="520" width="120" height="60" as="geometry" />
        </mxCell>
        <mxCell id="ER4bZgXHRKzJ_WXMxjQE-33" style="edgeStyle=orthogonalEdgeStyle;rounded=0;orthogonalLoop=1;jettySize=auto;html=1;exitX=0.5;exitY=1;exitDx=0;exitDy=0;entryX=0.5;entryY=0;entryDx=0;entryDy=0;" edge="1" parent="WIyWlLk6GJQsqaUBKTNV-1" source="ER4bZgXHRKzJ_WXMxjQE-34" target="ER4bZgXHRKzJ_WXMxjQE-41">
          <mxGeometry relative="1" as="geometry" />
        </mxCell>
        <mxCell id="ER4bZgXHRKzJ_WXMxjQE-34" value="sleep 0.01s" style="rounded=0;whiteSpace=wrap;html=1;" vertex="1" parent="WIyWlLk6GJQsqaUBKTNV-1">
          <mxGeometry x="70" y="600" width="120" height="60" as="geometry" />
        </mxCell>
        <mxCell id="ER4bZgXHRKzJ_WXMxjQE-35" style="edgeStyle=orthogonalEdgeStyle;rounded=0;orthogonalLoop=1;jettySize=auto;html=1;exitX=1;exitY=0.5;exitDx=0;exitDy=0;entryX=1;entryY=0.5;entryDx=0;entryDy=0;" edge="1" parent="WIyWlLk6GJQsqaUBKTNV-1" source="ER4bZgXHRKzJ_WXMxjQE-37" target="ER4bZgXHRKzJ_WXMxjQE-30">
          <mxGeometry relative="1" as="geometry">
            <mxPoint x="220" y="460" as="targetPoint" />
            <Array as="points">
              <mxPoint x="210" y="800" />
              <mxPoint x="210" y="460" />
            </Array>
          </mxGeometry>
        </mxCell>
        <mxCell id="ER4bZgXHRKzJ_WXMxjQE-36" style="edgeStyle=orthogonalEdgeStyle;rounded=0;orthogonalLoop=1;jettySize=auto;html=1;exitX=0.5;exitY=1;exitDx=0;exitDy=0;entryX=-0.008;entryY=0.588;entryDx=0;entryDy=0;entryPerimeter=0;" edge="1" parent="WIyWlLk6GJQsqaUBKTNV-1" source="ER4bZgXHRKzJ_WXMxjQE-37" target="ER4bZgXHRKzJ_WXMxjQE-43">
          <mxGeometry relative="1" as="geometry">
            <mxPoint x="130" y="890" as="targetPoint" />
            <Array as="points">
              <mxPoint x="130" y="860" />
              <mxPoint x="50" y="860" />
              <mxPoint x="50" y="317" />
            </Array>
          </mxGeometry>
        </mxCell>
        <mxCell id="ER4bZgXHRKzJ_WXMxjQE-37" value="if i &amp;lt; 0" style="rhombus;whiteSpace=wrap;html=1;" vertex="1" parent="WIyWlLk6GJQsqaUBKTNV-1">
          <mxGeometry x="90" y="760" width="80" height="80" as="geometry" />
        </mxCell>
        <mxCell id="ER4bZgXHRKzJ_WXMxjQE-38" value="True" style="text;html=1;align=center;verticalAlign=middle;whiteSpace=wrap;rounded=0;" vertex="1" parent="WIyWlLk6GJQsqaUBKTNV-1">
          <mxGeometry x="60" y="840" width="60" height="30" as="geometry" />
        </mxCell>
        <mxCell id="ER4bZgXHRKzJ_WXMxjQE-39" value="False" style="text;html=1;align=center;verticalAlign=middle;whiteSpace=wrap;rounded=0;" vertex="1" parent="WIyWlLk6GJQsqaUBKTNV-1">
          <mxGeometry x="200" y="600" width="60" height="30" as="geometry" />
        </mxCell>
        <mxCell id="ER4bZgXHRKzJ_WXMxjQE-40" style="edgeStyle=orthogonalEdgeStyle;rounded=0;orthogonalLoop=1;jettySize=auto;html=1;exitX=0.5;exitY=1;exitDx=0;exitDy=0;entryX=0.5;entryY=0;entryDx=0;entryDy=0;" edge="1" parent="WIyWlLk6GJQsqaUBKTNV-1" source="ER4bZgXHRKzJ_WXMxjQE-41" target="ER4bZgXHRKzJ_WXMxjQE-37">
          <mxGeometry relative="1" as="geometry" />
        </mxCell>
        <mxCell id="ER4bZgXHRKzJ_WXMxjQE-41" value="i = i - 1" style="rounded=0;whiteSpace=wrap;html=1;" vertex="1" parent="WIyWlLk6GJQsqaUBKTNV-1">
          <mxGeometry x="70" y="674.5" width="120" height="60" as="geometry" />
        </mxCell>
        <mxCell id="ER4bZgXHRKzJ_WXMxjQE-45" style="edgeStyle=orthogonalEdgeStyle;rounded=0;orthogonalLoop=1;jettySize=auto;html=1;exitX=0.5;exitY=1;exitDx=0;exitDy=0;entryX=0.5;entryY=0;entryDx=0;entryDy=0;" edge="1" parent="WIyWlLk6GJQsqaUBKTNV-1" source="ER4bZgXHRKzJ_WXMxjQE-43" target="DeL48xGdkNbRI5uETKw6-3">
          <mxGeometry relative="1" as="geometry" />
        </mxCell>
        <mxCell id="ER4bZgXHRKzJ_WXMxjQE-43" value="while True" style="shape=hexagon;perimeter=hexagonPerimeter2;whiteSpace=wrap;html=1;fixedSize=1;" vertex="1" parent="WIyWlLk6GJQsqaUBKTNV-1">
          <mxGeometry x="190" y="270" width="120" height="80" as="geometry" />
        </mxCell>
      </root>
    </mxGraphModel>
  </diagram>
</mxfile>
